# xmcd CD database file
#
# Track frame offsets:
#	150
#	13903
#	28032
#	43966
#	55503
#	72008
#	88130
#	102345
#	119220
#	144364
#	172086
#	198704
#	220670
#	234125
#	263641
#
# Disc length: 3888 seconds
#
# Revision: 0
# Processed by: cddbd v1.5PL3 Copyright (c) Steve Scherf et al.
# Submitted via: CDex 1.51
#
DISCID=d90f2e0f
DTITLE=Count Basie - Jive at five
DYEAR=1954
DGENRE=Jazz
TTITLE0=Blee blop blues
TTITLE1=Jive at five
TTITLE2=There's a small hotel
TTITLE3=Hob nail boogie
TTITLE4=Basie talks
TTITLE5=Paradise squat
TTITLE6=Softly, with feeling
TTITLE7=Rock-a-bye basie
TTITLE8=Perdido
TTITLE9=Down for the count
TTITLE10=Sure thing
TTITLE11=Blues backstage
TTITLE12=Peace pipe
TTITLE13=Plymouth rock
TTITLE14=Boogie woogie
EXTD=YEAR: 1954
EXTT0=
EXTT1=
EXTT2=
EXTT3=
EXTT4=
EXTT5=
EXTT6=
EXTT7=
EXTT8=
EXTT9=
EXTT10=
EXTT11=
EXTT12=
EXTT13=
EXTT14=
PLAYORDER=
